<?xml version="1.0" encoding="utf-8"?>
<!-- Generator: Adobe Illustrator 19.1.0, SVG Export Plug-In . SVG Version: 6.00 Build 0)  -->
<!DOCTYPE svg PUBLIC "-//W3C//DTD SVG 1.1//EN" "http://www.w3.org/Graphics/SVG/1.1/DTD/svg11.dtd">
<svg version="1.1" id="Hat" xmlns="http://www.w3.org/2000/svg" xmlns:xlink="http://www.w3.org/1999/xlink" x="0px" y="0px"
	 viewBox="-416 290.1 446 221.9" style="enable-background:new -416 290.1 446 221.9;" xml:space="preserve">
<style type="text/css">
	.st0{fill:#05A6E5;}
</style>
<path class="st0" d="M-150.2,430.6c0,0-134-13.5-248.5,80c0,0-4.7,5.3-6.8-5c-2.2-10.3-5.3-18.8-5.3-18.8s-3.3-25.2-4.6-29.9
	c-1.3-4.7-0.2-18.2,3-23.2c3.2-5,5.2-14.8,5-19.8c-0.2-5,7.2-25.8,8.5-27.5c1.3-1.7,4.7-13.9,6.1-17.2c3.2-8.2,31.8-35.6,31.8-35.6
	c12.8-9.8,8.1-8.2,46.5-27.3c5.6-2.8,131.9-59.8,212.8,57.2c0,0,13.2,10.8,92.5,37.4l38.7,11.4c2.4,4.1-3,12.1-11.7,26.4
	C15.2,443.1-20.2,536.8-150.2,430.6z"/>
</svg>
